  0
SECTION
  2
HEADER
  9
$ACADVER
  1
AC1009
  9
$INSBASE
 10
0.0
 20
0.0
 30
0.0
  9
$EXTMIN
 10
-2.0868407660249479
 20
1.4484372673729811
 30
0.0
  9
$EXTMAX
 10
9.3359831966216831
 20
15.072452917014189
 30
0.0
  9
$LIMMIN
 10
0.0
 20
0.0
  9
$LIMMAX
 10
12.0
 20
9.0
  9
$ORTHOMODE
 70
     0
  9
$REGENMODE
 70
     1
  9
$FILLMODE
 70
     1
  9
$QTEXTMODE
 70
     0
  9
$MIRRTEXT
 70
     0
  9
$DRAGMODE
 70
     2
  9
$LTSCALE
 40
1.0
  9
$OSMODE
 70
    63
  9
$ATTMODE
 70
     1
  9
$TEXTSIZE
 40
2.5
  9
$TRACEWID
 40
0.05
  9
$TEXTSTYLE
  7
STANDARD
  9
$CLAYER
  8
CUT
  9
$CELTYPE
  6
CONTINUOUS
  9
$CECOLOR
 62
     3
  9
$DIMSCALE
 40
1.0
  9
$DIMASZ
 40
0.18
  9
$DIMEXO
 40
0.0625
  9
$DIMDLI
 40
0.38
  9
$DIMRND
 40
0.0
  9
$DIMDLE
 40
0.0
  9
$DIMEXE
 40
1.25
  9
$DIMTP
 40
0.0
  9
$DIMTM
 40
0.0
  9
$DIMTXT
 40
0.18
  9
$DIMCEN
 40
0.09
  9
$DIMTSZ
 40
0.0
  9
$DIMTOL
 70
     0
  9
$DIMLIM
 70
     0
  9
$DIMTIH
 70
     1
  9
$DIMTOH
 70
     1
  9
$DIMSE1
 70
     0
  9
$DIMSE2
 70
     0
  9
$DIMTAD
 70
     0
  9
$DIMZIN
 70
     0
  9
$DIMBLK
  1

  9
$DIMASO
 70
     1
  9
$DIMSHO
 70
     1
  9
$DIMPOST
  1

  9
$DIMAPOST
  1

  9
$DIMALT
 70
     0
  9
$DIMALTD
 70
     2
  9
$DIMALTF
 40
25.399999999999999
  9
$DIMLFAC
 40
1.0
  9
$DIMTOFL
 70
     0
  9
$DIMTVP
 40
0.0
  9
$DIMTIX
 70
     0
  9
$DIMSOXD
 70
     0
  9
$DIMSAH
 70
     0
  9
$DIMBLK1
  1

  9
$DIMBLK2
  1

  9
$DIMSTYLE
  2
STANDARD
  9
$DIMCLRD
 70
     0
  9
$DIMCLRE
 70
     0
  9
$DIMCLRT
 70
     0
  9
$DIMTFAC
 40
1.0
  9
$DIMGAP
 40
0.09
  9
$LUNITS
 70
     2
  9
$LUPREC
 70
     4
  9
$SKETCHINC
 40
0.1
  9
$FILLETRAD
 40
0.25
  9
$AUNITS
 70
     0
  9
$AUPREC
 70
     0
  9
$MENU
  1
.
  9
$ELEVATION
 40
0.0
  9
$PELEVATION
 40
0.0
  9
$THICKNESS
 40
0.0
  9
$LIMCHECK
 70
     0
  9
$BLIPMODE
 70
     0
  9
$CHAMFERA
 40
0.0
  9
$CHAMFERB
 40
0.0
  9
$SKPOLY
 70
     0
  9
$TDCREATE
 40
2458852.5898535531
  9
$TDUPDATE
 40
2459038.4979620371
  9
$TDINDWG
 40
4.1166974421000004
  9
$TDUSRTIMER
 40
4.1166973263999997
  9
$USRTIMER
 70
     1
  9
$ANGBASE
 50
0.0
  9
$ANGDIR
 70
     0
  9
$PDMODE
 70
     0
  9
$PDSIZE
 40
0.0
  9
$PLINEWID
 40
0.0
  9
$COORDS
 70
     1
  9
$SPLFRAME
 70
     0
  9
$SPLINETYPE
 70
     6
  9
$SPLINESEGS
 70
     8
  9
$ATTDIA
 70
     0
  9
$ATTREQ
 70
     1
  9
$HANDLING
 70
     1
  9
$HANDSEED
  5
44E57
  9
$SURFTAB1
 70
     6
  9
$SURFTAB2
 70
     6
  9
$SURFTYPE
 70
     6
  9
$SURFU
 70
     6
  9
$SURFV
 70
     6
  9
$UCSNAME
  2

  9
$UCSORG
 10
0.0
 20
0.0
 30
0.0
  9
$UCSXDIR
 10
1.0
 20
0.0
 30
0.0
  9
$UCSYDIR
 10
0.0
 20
1.0
 30
0.0
  9
$PUCSNAME
  2

  9
$PUCSORG
 10
0.0
 20
0.0
 30
0.0
  9
$PUCSXDIR
 10
1.0
 20
0.0
 30
0.0
  9
$PUCSYDIR
 10
0.0
 20
1.0
 30
0.0
  9
$USERI1
 70
     0
  9
$USERI2
 70
     0
  9
$USERI3
 70
     0
  9
$USERI4
 70
     0
  9
$USERI5
 70
     0
  9
$USERR1
 40
0.0
  9
$USERR2
 40
0.0
  9
$USERR3
 40
0.0
  9
$USERR4
 40
0.0
  9
$USERR5
 40
0.0
  9
$WORLDVIEW
 70
     1
  9
$SHADEDGE
 70
     3
  9
$SHADEDIF
 70
    70
  9
$TILEMODE
 70
     1
  9
$MAXACTVP
 70
    64
  9
$PLIMCHECK
 70
     0
  9
$PEXTMIN
 10
0.2750000061951283
 20
0.1750000001877312
 30
0.0
  9
$PEXTMAX
 10
2.4750000557561549
 20
1.57500000168958
 30
0.0
  9
$PLIMMIN
 10
-0.1249999981226884
 20
-0.1249999981226884
  9
$PLIMMAX
 10
2.8750001820992281
 20
1.8749999718403241
  9
$UNITMODE
 70
     0
  9
$VISRETAIN
 70
     1
  9
$PLINEGEN
 70
     0
  9
$PSLTSCALE
 70
     1
  0
ENDSEC
  0
SECTION
  2
TABLES
  0
TABLE
  2
VPORT
 70
     1
  0
VPORT
  2
*ACTIVE
 70
     0
 10
0.0
 20
0.0
 11
1.0
 21
1.0
 12
4.9479774474659752
 22
8.3471387649053881
 13
0.0
 23
0.0
 14
0.000125
 24
0.000125
 15
0.000125
 25
0.000125
 16
0.0
 26
0.0
 36
1.0
 17
0.0
 27
0.0
 37
0.0
 40
15.73283864662312
 41
2.2546125461254611
 42
50.0
 43
0.0
 44
0.0
 50
0.0
 51
0.0
 71
     0
 72
   100
 73
     1
 74
     3
 75
     1
 76
     1
 77
     0
 78
     0
  0
ENDTAB
  0
TABLE
  2
LTYPE
 70
     1
  0
LTYPE
  2
CONTINUOUS
 70
     0
  3
Solid line
 72
    65
 73
     0
 40
0.0
  0
ENDTAB
  0
TABLE
  2
LAYER
 70
     6
  0
LAYER
  2
0
 70
     0
 62
   250
  6
CONTINUOUS
  0
LAYER
  2
DEFPOINTS
 70
     0
 62
     7
  6
CONTINUOUS
  0
LAYER
  2
PRINT_1
 70
     0
 62
   250
  6
CONTINUOUS
  0
LAYER
  2
CUT
 70
     0
 62
   250
  6
CONTINUOUS
  0
LAYER
  2
PRINT_2
 70
     0
 62
   250
  6
CONTINUOUS
  0
LAYER
  2
PRINT_3
 70
     0
 62
   250
  6
CONTINUOUS
  0
ENDTAB
  0
TABLE
  2
STYLE
 70
     1
  0
STYLE
  2
STANDARD
 70
     0
 40
0.0
 41
0.75
 50
0.0
 71
     0
 42
2.5
  3
txt
  4

  0
ENDTAB
  0
TABLE
  2
VIEW
 70
     0
  0
ENDTAB
  0
TABLE
  2
UCS
 70
     0
  0
ENDTAB
  0
TABLE
  2
APPID
 70
    13
  0
APPID
  2
ACAD
 70
     0
  0
APPID
  2
ACADANNOTATIVE
 70
     0
  0
APPID
  2
ACAD_NAV_VCDISPLAY
 70
     0
  0
APPID
  2
ACAD_EXEMPT_FROM_CAD_STANDARDS
 70
     0
  0
APPID
  2
ACAD_PSEXT
 70
     0
  0
APPID
  2
ACAECLAYERSTANDARD
 70
     0
  0
APPID
  2
ACCMTRANSPARENCY
 70
     0
  0
APPID
  2
ACAD_DSTYLE_DIMRADIAL_EXTENSION
 70
     0
  0
APPID
  2
ACAD_DSTYLE_DIMJAG
 70
     0
  0
APPID
  2
ACAD_DSTYLE_DIMTALN
 70
     0
  0
APPID
  2
GRADIENTCOLOR1ACI
 70
     0
  0
APPID
  2
GRADIENTCOLOR2ACI
 70
     0
  0
APPID
  2
ACAD_MLEADERVER
 70
     0
  0
ENDTAB
  0
TABLE
  2
DIMSTYLE
 70
     1
  0
DIMSTYLE
  2
STANDARD
 70
     0
  3

  4

  5

  6

  7

 40
1.0
 41
1.0
 42
1.0
 43
3.75
 44
1.0
 45
0.0
 46
0.0
 47
0.0
 48
0.0
140
1.0
141
2.5
142
0.0
143
0.03937007874016
144
1.0
145
0.0
146
1.0
147
1.0
 71
     0
 72
     0
 73
     0
 74
     0
 75
     0
 76
     0
 77
     1
 78
     8
170
     0
171
     3
172
     1
173
     0
174
     0
175
     0
176
     0
177
     0
178
     0
  0
ENDTAB
  0
ENDSEC
  0
SECTION
  2
BLOCKS
  0
BLOCK
  8
0
  2
$MODEL_SPACE
 70
     0
 10
0.0
 20
0.0
 30
0.0
  3
$MODEL_SPACE
  1

  0
ENDBLK
  5
2447C
  8
0
  0
BLOCK
 67
     1
  8
0
 62
     3
  2
$PAPER_SPACE
 70
     0
 10
0.0
 20
0.0
 30
0.0
  3
$PAPER_SPACE
  1

  0
ENDBLK
  5
36870
 67
     1
  8
0
 62
     3
  0
ENDSEC
  0
SECTION
  2
ENTITIES
  0
CIRCLE
  5
4255C
  8
CUT
  6
CONTINUOUS
 62
     7
 10
6.2337807265783871
 20
8.4739799460164562
 30
0.0
 40
0.0925
  0
CIRCLE
  5
4255D
  8
CUT
  6
CONTINUOUS
 62
     7
 10
2.4400307265783852
 20
12.66285494601645
 30
0.0
 40
0.0925
  0
POLYLINE
  5
44A3B
  8
CUT
  6
CONTINUOUS
 62
     7
 66
     1
 10
0.0
 20
0.0
 30
0.0
 70
     1
  0
VERTEX
  5
44C71
  8
CUT
  6
CONTINUOUS
 62
     7
 10
-1.7059293896478629
 20
13.01963938076841
 30
0.0
  0
VERTEX
  5
44C72
  8
CUT
  6
CONTINUOUS
 62
     7
 10
-1.612645038266066
 20
12.46174021289122
 30
0.0
  0
VERTEX
  5
44C73
  8
CUT
  6
CONTINUOUS
 62
     7
 10
-1.5103948558986531
 20
11.905413945026719
 30
0.0
  0
VERTEX
  5
44C74
  8
CUT
  6
CONTINUOUS
 62
     7
 10
-1.494999282579385
 20
11.8264413294341
 30
0.0
  0
VERTEX
  5
44C75
  8
CUT
  6
CONTINUOUS
 62
     7
 10
-1.4476945918526949
 20
11.58971662631123
 30
0.0
  0
VERTEX
  5
44C76
  8
CUT
  6
CONTINUOUS
 62
     7
 10
-1.4151577026934199
 20
11.43208799493147
 30
0.0
  0
VERTEX
  5
44C77
  8
CUT
  6
CONTINUOUS
 62
     7
 10
-1.3817562699847761
 20
11.27463472548161
 30
0.0
  0
VERTEX
  5
44C78
  8
CUT
  6
CONTINUOUS
 62
     7
 10
-1.3474352646328489
 20
11.117378325420029
 30
0.0
  0
VERTEX
  5
44C79
  8
CUT
  6
CONTINUOUS
 62
     7
 10
-1.3121396575437669
 20
10.96034030220517
 30
0.0
  0
VERTEX
  5
44C7A
  8
CUT
  6
CONTINUOUS
 62
     7
 10
-1.2758144196236281
 20
10.803542163295459
 30
0.0
  0
VERTEX
  5
44C7B
  8
CUT
  6
CONTINUOUS
 62
     7
 10
-1.257248492510086
 20
10.725239771535779
 30
0.0
  0
VERTEX
  5
44C7C
  8
CUT
  6
CONTINUOUS
 62
     7
 10
-1.238404521778562
 20
10.647005416149289
 30
0.0
  0
VERTEX
  5
44C7D
  8
CUT
  6
CONTINUOUS
 62
     7
 10
-1.219275628792331
 20
10.56884178556831
 30
0.0
  0
VERTEX
  5
44C7E
  8
CUT
  6
CONTINUOUS
 62
     7
 10
-1.1998549349146539
 20
10.490751568225109
 30
0.0
  0
VERTEX
  5
44C7F
  8
CUT
  6
CONTINUOUS
 62
     7
 10
-1.1801355615088049
 20
10.412737452552021
 30
0.0
  0
VERTEX
  5
44C80
  8
CUT
  6
CONTINUOUS
 62
     7
 10
-1.160110629938031
 20
10.334802126981341
 30
0.0
  0
VERTEX
  5
44C81
  8
CUT
  6
CONTINUOUS
 62
     7
 10
-1.139773261565608
 20
10.256948279945339
 30
0.0
  0
VERTEX
  5
44C82
  8
CUT
  6
CONTINUOUS
 62
     7
 10
-1.1191165777547949
 20
10.179178599876369
 30
0.0
  0
VERTEX
  5
44C83
  8
CUT
  6
CONTINUOUS
 62
     7
 10
-1.0981336998688529
 20
10.10149577520669
 30
0.0
  0
VERTEX
  5
44C84
  8
CUT
  6
CONTINUOUS
 62
     7
 10
-1.0768177492710569
 20
10.023902494368629
 30
0.0
  0
VERTEX
  5
44C85
  8
CUT
  6
CONTINUOUS
 62
     7
 10
-1.055161847324654
 20
9.9464014457944856
 30
0.0
  0
VERTEX
  5
44C86
  8
CUT
  6
CONTINUOUS
 62
     7
 10
-1.0331591153929329
 20
9.8689953179165553
 30
0.0
  0
VERTEX
  5
44C87
  8
CUT
  6
CONTINUOUS
 62
     7
 10
-1.0108026748391259
 20
9.7916867991671417
 30
0.0
  0
VERTEX
  5
44C88
  8
CUT
  6
CONTINUOUS
 62
     7
 10
-0.9880856470265229
 20
9.7144785779785501
 30
0.0
  0
VERTEX
  5
44C89
  8
CUT
  6
CONTINUOUS
 62
     7
 10
-0.9650011533183686
 20
9.6373733427830786
 30
0.0
  0
VERTEX
  5
44C8A
  8
CUT
  6
CONTINUOUS
 62
     7
 10
-0.9328815776359392
 20
9.5323635402169167
 30
0.0
  0
VERTEX
  5
44C8B
  8
CUT
  6
CONTINUOUS
 62
     7
 10
-0.899981074010526
 20
9.4276032750236052
 30
0.0
  0
VERTEX
  5
44C8C
  8
CUT
  6
CONTINUOUS
 62
     7
 10
-0.8492173267439113
 20
9.2709219147344797
 30
0.0
  0
VERTEX
  5
44C8D
  8
CUT
  6
CONTINUOUS
 62
     7
 10
-0.7968282723431912
 20
9.1147792690601683
 30
0.0
  0
VERTEX
  5
44C8E
  8
CUT
  6
CONTINUOUS
 62
     7
 10
-0.7428929792509678
 20
8.9591616913162113
 30
0.0
  0
VERTEX
  5
44C8F
  8
CUT
  6
CONTINUOUS
 62
     7
 10
-0.6874905159098006
 20
8.8040555348181453
 30
0.0
  0
VERTEX
  5
44C90
  8
CUT
  6
CONTINUOUS
 62
     7
 10
-0.6114749614622923
 20
8.5980192834523095
 30
0.0
  0
VERTEX
  5
44C91
  8
CUT
  6
CONTINUOUS
 62
     7
 10
-0.5331790919637029
 20
8.3928356169436267
 30
0.0
  0
VERTEX
  5
44C92
  8
CUT
  6
CONTINUOUS
 62
     7
 10
-0.4323880869814474
 20
8.1375057015692605
 30
0.0
  0
VERTEX
  5
44C93
  8
CUT
  6
CONTINUOUS
 62
     7
 10
0.1355817384487068
 20
6.7634662428949213
 30
0.0
  0
VERTEX
  5
44C94
  8
CUT
  6
CONTINUOUS
 62
     7
 10
2.1100016683862739
 20
3.583448622494029
 30
0.0
  0
VERTEX
  5
44C95
  8
CUT
  6
CONTINUOUS
 62
     7
 10
2.130209039524658
 20
3.553131209196144
 30
0.0
  0
VERTEX
  5
44C96
  8
CUT
  6
CONTINUOUS
 62
     7
 10
2.212325711181208
 20
3.4327360956046462
 30
0.0
  0
VERTEX
  5
44C97
  8
CUT
  6
CONTINUOUS
 62
     7
 10
2.296377946928259
 20
3.3136773446000451
 30
0.0
  0
VERTEX
  5
44C98
  8
CUT
  6
CONTINUOUS
 62
     7
 10
2.4039133850885288
 20
3.1666053985365838
 30
0.0
  0
VERTEX
  5
44C99
  8
CUT
  6
CONTINUOUS
 62
     7
 10
2.536152760474379
 20
2.9924716978013262
 30
0.0
  0
VERTEX
  5
44C9A
  8
CUT
  6
CONTINUOUS
 62
     7
 10
2.7398889408892582
 20
2.735493658965328
 30
0.0
  0
VERTEX
  5
44C9B
  8
CUT
  6
CONTINUOUS
 62
     7
 10
2.7967741520858591
 20
2.6668508315371331
 30
0.0
  0
VERTEX
  5
44C9C
  8
CUT
  6
CONTINUOUS
 62
     7
 10
2.911885510376933
 20
2.5305963708102568
 30
0.0
  0
VERTEX
  5
44C9D
  8
CUT
  6
CONTINUOUS
 62
     7
 10
2.9995204706411438
 20
2.4294788088257788
 30
0.0
  0
VERTEX
  5
44C9E
  8
CUT
  6
CONTINUOUS
 62
     7
 10
3.0883929737877618
 20
2.3294440505574681
 30
0.0
  0
VERTEX
  5
44C9F
  8
CUT
  6
CONTINUOUS
 62
     7
 10
3.1483830648456879
 20
2.2634281455002121
 30
0.0
  0
VERTEX
  5
44CA0
  8
CUT
  6
CONTINUOUS
 62
     7
 10
3.20900452266737
 20
2.1980020507913238
 30
0.0
  0
VERTEX
  5
44CA1
  8
CUT
  6
CONTINUOUS
 62
     7
 10
3.270289886334794
 20
2.1332091921317149
 30
0.0
  0
VERTEX
  5
44CA2
  8
CUT
  6
CONTINUOUS
 62
     7
 10
3.332271694929914
 20
2.0690929952223001
 30
0.0
  0
VERTEX
  5
44CA3
  8
CUT
  6
CONTINUOUS
 62
     7
 10
3.3949824875347039
 20
2.0056968857640061
 30
0.0
  0
VERTEX
  5
44CA4
  8
CUT
  6
CONTINUOUS
 62
     7
 10
3.45845480323112
 20
1.9430642894577339
 30
0.0
  0
VERTEX
  5
44CA5
  8
CUT
  6
CONTINUOUS
 62
     7
 10
3.4904867007018079
 20
1.912047879268155
 30
0.0
  0
VERTEX
  5
44CA6
  8
CUT
  6
CONTINUOUS
 62
     7
 10
3.5227211811011321
 20
1.881238632004413
 30
0.0
  0
VERTEX
  5
44CA7
  8
CUT
  6
CONTINUOUS
 62
     7
 10
3.5551623118143558
 20
1.850641975879145
 30
0.0
  0
VERTEX
  5
44CA8
  8
CUT
  6
CONTINUOUS
 62
     7
 10
3.5878141602267131
 20
1.820263339104953
 30
0.0
  0
VERTEX
  5
44CA9
  8
CUT
  6
CONTINUOUS
 62
     7
 10
3.6206807937234511
 20
1.790108149894462
 30
0.0
  0
VERTEX
  5
44CAA
  8
CUT
  6
CONTINUOUS
 62
     7
 10
3.6634414493766911
 20
1.8305579308773809
 30
0.0
  0
VERTEX
  5
44CAB
  8
CUT
  6
CONTINUOUS
 62
     7
 10
3.768655128619073
 20
1.933398082270646
 30
0.0
  0
VERTEX
  5
44CAC
  8
CUT
  6
CONTINUOUS
 62
     7
 10
3.912381185130513
 20
2.0809420153914289
 30
0.0
  0
VERTEX
  5
44CAD
  8
CUT
  6
CONTINUOUS
 62
     7
 10
4.20995008742858
 20
2.4069568732577848
 30
0.0
  0
VERTEX
  5
44CAE
  8
CUT
  6
CONTINUOUS
 62
     7
 10
4.2440177273826398
 20
2.4457983754358179
 30
0.0
  0
VERTEX
  5
44CAF
  8
CUT
  6
CONTINUOUS
 62
     7
 10
4.311663727373741
 20
2.5238989982685949
 30
0.0
  0
VERTEX
  5
44CB0
  8
CUT
  6
CONTINUOUS
 62
     7
 10
4.3786674397488516
 20
2.6025432257344678
 30
0.0
  0
VERTEX
  5
44CB1
  8
CUT
  6
CONTINUOUS
 62
     7
 10
4.4450409672360252
 20
2.6817151938304069
 30
0.0
  0
VERTEX
  5
44CB2
  8
CUT
  6
CONTINUOUS
 62
     7
 10
4.5434461365194201
 20
2.8014279571490688
 30
0.0
  0
VERTEX
  5
44CB3
  8
CUT
  6
CONTINUOUS
 62
     7
 10
4.64050146765004
 20
2.922238901868357
 30
0.0
  0
VERTEX
  5
44CB4
  8
CUT
  6
CONTINUOUS
 62
     7
 10
4.736247807334947
 20
3.044094486978052
 30
0.0
  0
VERTEX
  5
44CB5
  8
CUT
  6
CONTINUOUS
 62
     7
 10
4.8307260022812377
 20
3.1669411714679359
 30
0.0
  0
VERTEX
  5
44CB6
  8
CUT
  6
CONTINUOUS
 62
     7
 10
4.9239768991959494
 20
3.2907254143277971
 30
0.0
  0
VERTEX
  5
44CB7
  8
CUT
  6
CONTINUOUS
 62
     7
 10
5.0160413447861742
 20
3.4153936745474138
 30
0.0
  0
VERTEX
  5
44CB8
  8
CUT
  6
CONTINUOUS
 62
     7
 10
5.13701894720404
 20
3.5829006196044242
 30
0.0
  0
VERTEX
  5
44CB9
  8
CUT
  6
CONTINUOUS
 62
     7
 10
7.1555927208575261
 20
6.7785467286931267
 30
0.0
  0
VERTEX
  5
44CBA
  8
CUT
  6
CONTINUOUS
 62
     7
 10
7.2934434110928086
 20
7.0907609667517173
 30
0.0
  0
VERTEX
  5
44CBB
  8
CUT
  6
CONTINUOUS
 62
     7
 10
7.525231056994456
 20
7.6322164810937094
 30
0.0
  0
VERTEX
  5
44CBC
  8
CUT
  6
CONTINUOUS
 62
     7
 10
7.6253672945821194
 20
7.8740953871795956
 30
0.0
  0
VERTEX
  5
44CBD
  8
CUT
  6
CONTINUOUS
 62
     7
 10
7.6988461575156464
 20
8.0561547050026938
 30
0.0
  0
VERTEX
  5
44CBE
  8
CUT
  6
CONTINUOUS
 62
     7
 10
7.7469358341767096
 20
8.1778780469733441
 30
0.0
  0
VERTEX
  5
44CBF
  8
CUT
  6
CONTINUOUS
 62
     7
 10
7.7942318521246392
 20
8.2999071922526007
 30
0.0
  0
VERTEX
  5
44CC0
  8
CUT
  6
CONTINUOUS
 62
     7
 10
7.8406684915215541
 20
8.4222639401870953
 30
0.0
  0
VERTEX
  5
44CC1
  8
CUT
  6
CONTINUOUS
 62
     7
 10
7.8861800325296789
 20
8.5449700901234493
 30
0.0
  0
VERTEX
  5
44CC2
  8
CUT
  6
CONTINUOUS
 62
     7
 10
7.9307007553111637
 20
8.6680474414083015
 30
0.0
  0
VERTEX
  5
44CC3
  8
CUT
  6
CONTINUOUS
 62
     7
 10
7.9525690224175767
 20
8.7297321298522341
 30
0.0
  0
VERTEX
  5
44CC4
  8
CUT
  6
CONTINUOUS
 62
     7
 10
7.9741649400281878
 20
8.7915177933882749
 30
0.0
  0
VERTEX
  5
44CC5
  8
CUT
  6
CONTINUOUS
 62
     7
 10
7.9954802931632107
 20
8.8534071569347592
 30
0.0
  0
VERTEX
  5
44CC6
  8
CUT
  6
CONTINUOUS
 62
     7
 10
8.0211794999749486
 20
8.9286174574964488
 30
0.0
  0
VERTEX
  5
44CC7
  8
CUT
  6
CONTINUOUS
 62
     7
 10
8.046493257993319
 20
9.0039526647029842
 30
0.0
  0
VERTEX
  5
44CC8
  8
CUT
  6
CONTINUOUS
 62
     7
 10
8.0714268646453888
 20
9.0794099387260339
 30
0.0
  0
VERTEX
  5
44CC9
  8
CUT
  6
CONTINUOUS
 62
     7
 10
8.0959856173582097
 20
9.1549864397372769
 30
0.0
  0
VERTEX
  5
44CCA
  8
CUT
  6
CONTINUOUS
 62
     7
 10
8.1201748135588172
 20
9.2306793279083763
 30
0.0
  0
VERTEX
  5
44CCB
  8
CUT
  6
CONTINUOUS
 62
     7
 10
8.1439997506742543
 20
9.3064857634110094
 30
0.0
  0
VERTEX
  5
44CCC
  8
CUT
  6
CONTINUOUS
 62
     7
 10
8.1674657261315815
 20
9.3824029064168641
 30
0.0
  0
VERTEX
  5
44CCD
  8
CUT
  6
CONTINUOUS
 62
     7
 10
8.1905780373578665
 20
9.4584279170975964
 30
0.0
  0
VERTEX
  5
44CCE
  8
CUT
  6
CONTINUOUS
 62
     7
 10
8.2133419817801325
 20
9.5345579556248872
 30
0.0
  0
VERTEX
  5
44CCF
  8
CUT
  6
CONTINUOUS
 62
     7
 10
8.2357628568254455
 20
9.6107901821704083
 30
0.0
  0
VERTEX
  5
44CD0
  8
CUT
  6
CONTINUOUS
 62
     7
 10
8.2578459599208411
 20
9.6871217569058476
 30
0.0
  0
VERTEX
  5
44CD1
  8
CUT
  6
CONTINUOUS
 62
     7
 10
8.2795965884933764
 20
9.7635498400028631
 30
0.0
  0
VERTEX
  5
44CD2
  8
CUT
  6
CONTINUOUS
 62
     7
 10
8.3010200399700977
 20
9.8400715916331318
 30
0.0
  0
VERTEX
  5
44CD3
  8
CUT
  6
CONTINUOUS
 62
     7
 10
8.3221216117780852
 20
9.9166841719683312
 30
0.0
  0
VERTEX
  5
44CD4
  8
CUT
  6
CONTINUOUS
 62
     7
 10
8.3429066013443247
 20
9.9933847411801331
 30
0.0
  0
VERTEX
  5
44CD5
  8
CUT
  6
CONTINUOUS
 62
     7
 10
8.3633803060959337
 20
10.070170459440209
 30
0.0
  0
VERTEX
  5
44CD6
  8
CUT
  6
CONTINUOUS
 62
     7
 10
8.3835480234599231
 20
10.147038486920239
 30
0.0
  0
VERTEX
  5
44CD7
  8
CUT
  6
CONTINUOUS
 62
     7
 10
8.4034150508633445
 20
10.223985983791909
 30
0.0
  0
VERTEX
  5
44CD8
  8
CUT
  6
CONTINUOUS
 62
     7
 10
8.4229866857332638
 20
10.30101011022686
 30
0.0
  0
VERTEX
  5
44CD9
  8
CUT
  6
CONTINUOUS
 62
     7
 10
8.4422682254967185
 20
10.37810802639679
 30
0.0
  0
VERTEX
  5
44CDA
  8
CUT
  6
CONTINUOUS
 62
     7
 10
8.4612649675807603
 20
10.45527689247338
 30
0.0
  0
VERTEX
  5
44CDB
  8
CUT
  6
CONTINUOUS
 62
     7
 10
8.4799822094124409
 20
10.532513868628291
 30
0.0
  0
VERTEX
  5
44CDC
  8
CUT
  6
CONTINUOUS
 62
     7
 10
8.4984252484188119
 20
10.60981611503319
 30
0.0
  0
VERTEX
  5
44CDD
  8
CUT
  6
CONTINUOUS
 62
     7
 10
8.5345099076638178
 20
10.764605059279679
 30
0.0
  0
VERTEX
  5
44CDE
  8
CUT
  6
CONTINUOUS
 62
     7
 10
8.5695613247321774
 20
10.91962100658624
 30
0.0
  0
VERTEX
  5
44CDF
  8
CUT
  6
CONTINUOUS
 62
     7
 10
8.6036218790402899
 20
11.074841238326259
 30
0.0
  0
VERTEX
  5
44CE0
  8
CUT
  6
CONTINUOUS
 62
     7
 10
8.6215912212383614
 20
11.15889492581922
 30
0.0
  0
VERTEX
  5
44CE1
  8
CUT
  6
CONTINUOUS
 62
     7
 10
8.6569026944984131
 20
11.327138849035631
 30
0.0
  0
VERTEX
  5
44CE2
  8
CUT
  6
CONTINUOUS
 62
     7
 10
8.6913707632183304
 20
11.495561644328379
 30
0.0
  0
VERTEX
  5
44CE3
  8
CUT
  6
CONTINUOUS
 62
     7
 10
8.7249868797675276
 20
11.664159481020191
 30
0.0
  0
VERTEX
  5
44CE4
  8
CUT
  6
CONTINUOUS
 62
     7
 10
8.7577424965154478
 20
11.83292852843385
 30
0.0
  0
VERTEX
  5
44CE5
  8
CUT
  6
CONTINUOUS
 62
     7
 10
8.7896290658315763
 20
12.00186495589211
 30
0.0
  0
VERTEX
  5
44CE6
  8
CUT
  6
CONTINUOUS
 62
     7
 10
8.8206380400853561
 20
12.1709649327177
 30
0.0
  0
VERTEX
  5
44CE7
  8
CUT
  6
CONTINUOUS
 62
     7
 10
8.8507608716462443
 20
12.34022462823342
 30
0.0
  0
VERTEX
  5
44CE8
  8
CUT
  6
CONTINUOUS
 62
     7
 10
8.8799890128836694
 20
12.50964021176198
 30
0.0
  0
VERTEX
  5
44CE9
  8
CUT
  6
CONTINUOUS
 62
     7
 10
8.9083139161671152
 20
12.679207852626179
 30
0.0
  0
VERTEX
  5
44CEA
  8
CUT
  6
CONTINUOUS
 62
     7
 10
8.9357270338660442
 20
12.84892372014874
 30
0.0
  0
VERTEX
  5
44CEB
  8
CUT
  6
CONTINUOUS
 62
     7
 10
8.9622198183498796
 20
13.01878398365243
 30
0.0
  0
VERTEX
  5
44CEC
  8
CUT
  6
CONTINUOUS
 62
     7
 10
8.9877837219880803
 20
13.188784812460019
 30
0.0
  0
VERTEX
  5
44CED
  8
CUT
  6
CONTINUOUS
 62
     7
 10
9.0124101971501176
 20
13.358922375894251
 30
0.0
  0
VERTEX
  5
44CEE
  8
CUT
  6
CONTINUOUS
 62
     7
 10
9.0360906962054486
 20
13.52919284327789
 30
0.0
  0
VERTEX
  5
44CEF
  8
CUT
  6
CONTINUOUS
 62
     7
 10
7.074004131881054
 20
12.99127650200221
 30
0.0
 42
0.5358078124662417
  0
VERTEX
  5
44CF0
  8
CUT
  6
CONTINUOUS
 62
     7
 10
0.2038489411044964
 20
12.972515741785431
 30
0.0
  0
VERTEX
  5
44CF1
  8
CUT
  6
CONTINUOUS
 62
     7
 10
-0.0370440225968025
 20
13.039378138087111
 30
0.0
  0
VERTEX
  5
44CF2
  8
CUT
  6
CONTINUOUS
 62
     7
 10
-0.1087402833148303
 20
13.061162623310651
 30
0.0
  0
VERTEX
  5
44CF3
  8
CUT
  6
CONTINUOUS
 62
     7
 10
-1.7820537857461569
 20
13.52299244368891
 30
0.0
  0
SEQEND
  5
44CF4
  8
CUT
  6
CONTINUOUS
 62
     7
  0
POLYLINE
  5
44ABE
  8
PRINT_2
  6
CONTINUOUS
 62
     7
 66
     1
 10
0.0
 20
0.0
 30
0.0
 70
     1
  0
VERTEX
  5
44CF5
  8
PRINT_2
  6
CONTINUOUS
 62
     7
 10
-1.952827366392867
 20
12.98033059831122
 30
0.0
  0
VERTEX
  5
44CF6
  8
PRINT_2
  6
CONTINUOUS
 62
     7
 10
-1.8588901449407871
 20
12.4185268562633
 30
0.0
  0
VERTEX
  5
44CF7
  8
PRINT_2
  6
CONTINUOUS
 62
     7
 10
-1.756033035112565
 20
11.85889839683966
 30
0.0
  0
VERTEX
  5
44CF8
  8
PRINT_2
  6
CONTINUOUS
 62
     7
 10
-1.740267555164237
 20
11.77802832063181
 30
0.0
  0
VERTEX
  5
44CF9
  8
PRINT_2
  6
CONTINUOUS
 62
     7
 10
-1.6926928714760541
 20
11.53995250406385
 30
0.0
  0
VERTEX
  5
44CFA
  8
PRINT_2
  6
CONTINUOUS
 62
     7
 10
-1.6598576898071391
 20
11.380878760958289
 30
0.0
  0
VERTEX
  5
44CFB
  8
PRINT_2
  6
CONTINUOUS
 62
     7
 10
-1.6261625347202651
 20
11.22204089375281
 30
0.0
  0
VERTEX
  5
44CFC
  8
PRINT_2
  6
CONTINUOUS
 62
     7
 10
-1.5915204106685079
 20
11.063313150698511
 30
0.0
  0
VERTEX
  5
44CFD
  8
PRINT_2
  6
CONTINUOUS
 62
     7
 10
-1.55587466757575
 20
10.904717294359131
 30
0.0
  0
VERTEX
  5
44CFE
  8
PRINT_2
  6
CONTINUOUS
 62
     7
 10
-1.519218737079427
 20
10.7464917186736
 30
0.0
  0
VERTEX
  5
44CFF
  8
PRINT_2
  6
CONTINUOUS
 62
     7
 10
-1.5004016084986631
 20
10.667129876686831
 30
0.0
  0
VERTEX
  5
44D00
  8
PRINT_2
  6
CONTINUOUS
 62
     7
 10
-1.481346736257904
 20
10.588019923271659
 30
0.0
  0
VERTEX
  5
44D01
  8
PRINT_2
  6
CONTINUOUS
 62
     7
 10
-1.4619983359408619
 20
10.508959351611651
 30
0.0
  0
VERTEX
  5
44D02
  8
PRINT_2
  6
CONTINUOUS
 62
     7
 10
-1.4423492844840951
 20
10.42995091306098
 30
0.0
  0
VERTEX
  5
44D03
  8
PRINT_2
  6
CONTINUOUS
 62
     7
 10
-1.4223924536813679
 20
10.35099736445326
 30
0.0
  0
VERTEX
  5
44D04
  8
PRINT_2
  6
CONTINUOUS
 62
     7
 10
-1.4021207103250639
 20
10.27210146846603
 30
0.0
  0
VERTEX
  5
44D05
  8
PRINT_2
  6
CONTINUOUS
 62
     7
 10
-1.3815269163409729
 20
10.19326599391651
 30
0.0
  0
VERTEX
  5
44D06
  8
PRINT_2
  6
CONTINUOUS
 62
     7
 10
-1.360603928953892
 20
10.11449371613547
 30
0.0
  0
VERTEX
  5
44D07
  8
PRINT_2
  6
CONTINUOUS
 62
     7
 10
-1.3393446008552981
 20
10.035787417301959
 30
0.0
  0
VERTEX
  5
44D08
  8
PRINT_2
  6
CONTINUOUS
 62
     7
 10
-1.3177417803894249
 20
9.9571498868004511
 30
0.0
  0
VERTEX
  5
44D09
  8
PRINT_2
  6
CONTINUOUS
 62
     7
 10
-1.2957883117516209
 20
9.8785839215739841
 30
0.0
  0
VERTEX
  5
44D0A
  8
PRINT_2
  6
CONTINUOUS
 62
     7
 10
-1.2734770352022049
 20
9.8000923264819111
 30
0.0
  0
VERTEX
  5
44D0B
  8
PRINT_2
  6
CONTINUOUS
 62
     7
 10
-1.250800787292305
 20
9.7216779146487777
 30
0.0
  0
VERTEX
  5
44D0C
  8
PRINT_2
  6
CONTINUOUS
 62
     7
 10
-1.22775240111865
 20
9.6433435078586065
 30
0.0
  0
VERTEX
  5
44D0D
  8
PRINT_2
  6
CONTINUOUS
 62
     7
 10
-1.2042850177502791
 20
9.5649593710039706
 30
0.0
  0
VERTEX
  5
44D0E
  8
PRINT_2
  6
CONTINUOUS
 62
     7
 10
-1.1716753459063221
 20
9.458347277620863
 30
0.0
  0
VERTEX
  5
44D0F
  8
PRINT_2
  6
CONTINUOUS
 62
     7
 10
-1.1381573851835749
 20
9.3516209340355694
 30
0.0
  0
VERTEX
  5
44D10
  8
PRINT_2
  6
CONTINUOUS
 62
     7
 10
-1.0866455578395171
 20
9.1926306385230152
 30
0.0
  0
VERTEX
  5
44D11
  8
PRINT_2
  6
CONTINUOUS
 62
     7
 10
-1.0334488871586269
 20
9.0340809377086622
 30
0.0
  0
VERTEX
  5
44D12
  8
PRINT_2
  6
CONTINUOUS
 62
     7
 10
-0.9787215588103919
 20
8.8761781288857495
 30
0.0
  0
VERTEX
  5
44D13
  8
PRINT_2
  6
CONTINUOUS
 62
     7
 10
-0.9224858435020166
 20
8.7187391788215862
 30
0.0
  0
VERTEX
  5
44D14
  8
PRINT_2
  6
CONTINUOUS
 62
     7
 10
-0.8455413955653767
 20
8.5101852094201291
 30
0.0
  0
VERTEX
  5
44D15
  8
PRINT_2
  6
CONTINUOUS
 62
     7
 10
-0.7662418740311808
 20
8.3023713530191596
 30
0.0
  0
VERTEX
  5
44D16
  8
PRINT_2
  6
CONTINUOUS
 62
     7
 10
-0.6641917376190918
 20
8.0438517291833787
 30
0.0
  0
VERTEX
  5
44D17
  8
PRINT_2
  6
CONTINUOUS
 62
     7
 10
-0.0876253195677777
 20
6.6490152898548649
 30
0.0
  0
VERTEX
  5
44D18
  8
PRINT_2
  6
CONTINUOUS
 62
     7
 10
1.899738125102842
 20
3.4481507339581841
 30
0.0
  0
VERTEX
  5
44D19
  8
PRINT_2
  6
CONTINUOUS
 62
     7
 10
1.9229233331226681
 20
3.4133656286062379
 30
0.0
  0
VERTEX
  5
44D1A
  8
PRINT_2
  6
CONTINUOUS
 62
     7
 10
2.0069289017482812
 20
3.2902011143490189
 30
0.0
  0
VERTEX
  5
44D1B
  8
PRINT_2
  6
CONTINUOUS
 62
     7
 10
2.0933429449425058
 20
3.1677968979647591
 30
0.0
  0
VERTEX
  5
44D1C
  8
PRINT_2
  6
CONTINUOUS
 62
     7
 10
2.2034440981474139
 20
3.0172159253783768
 30
0.0
  0
VERTEX
  5
44D1D
  8
PRINT_2
  6
CONTINUOUS
 62
     7
 10
2.3386319391007362
 20
2.8391996653126892
 30
0.0
  0
VERTEX
  5
44D1E
  8
PRINT_2
  6
CONTINUOUS
 62
     7
 10
2.5456692267161709
 20
2.5780578493181192
 30
0.0
  0
VERTEX
  5
44D1F
  8
PRINT_2
  6
CONTINUOUS
 62
     7
 10
2.6050380897650589
 20
2.5064180235154412
 30
0.0
  0
VERTEX
  5
44D20
  8
PRINT_2
  6
CONTINUOUS
 62
     7
 10
2.7219309463500281
 20
2.3680548474287231
 30
0.0
  0
VERTEX
  5
44D21
  8
PRINT_2
  6
CONTINUOUS
 62
     7
 10
2.8116040266871631
 20
2.264585601456659
 30
0.0
  0
VERTEX
  5
44D22
  8
PRINT_2
  6
CONTINUOUS
 62
     7
 10
2.9024295084258109
 20
2.1623525733699069
 30
0.0
  0
VERTEX
  5
44D23
  8
PRINT_2
  6
CONTINUOUS
 62
     7
 10
2.9641783238108839
 20
2.0944012857160401
 30
0.0
  0
VERTEX
  5
44D24
  8
PRINT_2
  6
CONTINUOUS
 62
     7
 10
3.026496602790544
 20
2.0271438859581599
 30
0.0
  0
VERTEX
  5
44D25
  8
PRINT_2
  6
CONTINUOUS
 62
     7
 10
3.089600782980539
 20
1.960428115940559
 30
0.0
  0
VERTEX
  5
44D26
  8
PRINT_2
  6
CONTINUOUS
 62
     7
 10
3.1535268480094198
 20
1.8943007107238199
 30
0.0
  0
VERTEX
  5
44D27
  8
PRINT_2
  6
CONTINUOUS
 62
     7
 10
3.218310821794645
 20
1.8288087639210679
 30
0.0
  0
VERTEX
  5
44D28
  8
PRINT_2
  6
CONTINUOUS
 62
     7
 10
3.283699629216144
 20
1.7642850304910831
 30
0.0
  0
VERTEX
  5
44D29
  8
PRINT_2
  6
CONTINUOUS
 62
     7
 10
3.317163348274391
 20
1.7318821908613311
 30
0.0
  0
VERTEX
  5
44D2A
  8
PRINT_2
  6
CONTINUOUS
 62
     7
 10
3.3505857849579139
 20
1.6999375122692411
 30
0.0
  0
VERTEX
  5
44D2B
  8
PRINT_2
  6
CONTINUOUS
 62
     7
 10
3.3842496812653589
 20
1.66818761217295
 30
0.0
  0
VERTEX
  5
44D2C
  8
PRINT_2
  6
CONTINUOUS
 62
     7
 10
3.4181595125729132
 20
1.636638572885595
 30
0.0
  0
VERTEX
  5
44D2D
  8
PRINT_2
  6
CONTINUOUS
 62
     7
 10
3.6232831909127721
 20
1.4484372673729851
 30
0.0
  0
VERTEX
  5
44D2E
  8
PRINT_2
  6
CONTINUOUS
 62
     7
 10
3.8367279016069058
 20
1.6503469824520629
 30
0.0
  0
VERTEX
  5
44D2F
  8
PRINT_2
  6
CONTINUOUS
 62
     7
 10
3.9455952409022208
 20
1.7567583705484731
 30
0.0
  0
VERTEX
  5
44D30
  8
PRINT_2
  6
CONTINUOUS
 62
     7
 10
4.0942927167523626
 20
1.9094057816344081
 30
0.0
  0
VERTEX
  5
44D31
  8
PRINT_2
  6
CONTINUOUS
 62
     7
 10
4.3962671957468444
 20
2.2402473651747452
 30
0.0
  0
VERTEX
  5
44D32
  8
PRINT_2
  6
CONTINUOUS
 62
     7
 10
4.4324798675205983
 20
2.2815344802044208
 30
0.0
  0
VERTEX
  5
44D33
  8
PRINT_2
  6
CONTINUOUS
 62
     7
 10
4.5013018189361409
 20
2.3609927965990032
 30
0.0
  0
VERTEX
  5
44D34
  8
PRINT_2
  6
CONTINUOUS
 62
     7
 10
4.5696106832711498
 20
2.4411689192983399
 30
0.0
  0
VERTEX
  5
44D35
  8
PRINT_2
  6
CONTINUOUS
 62
     7
 10
4.6373997494551134
 20
2.5220293765974819
 30
0.0
  0
VERTEX
  5
44D36
  8
PRINT_2
  6
CONTINUOUS
 62
     7
 10
4.7374638787775316
 20
2.6437603132697718
 30
0.0
  0
VERTEX
  5
44D37
  8
PRINT_2
  6
CONTINUOUS
 62
     7
 10
4.8362443505475587
 20
2.7667186502857271
 30
0.0
  0
VERTEX
  5
44D38
  8
PRINT_2
  6
CONTINUOUS
 62
     7
 10
4.9336273810315703
 20
2.8906572384180431
 30
0.0
  0
VERTEX
  5
44D39
  8
PRINT_2
  6
CONTINUOUS
 62
     7
 10
5.02965643501605
 20
3.0155204505422839
 30
0.0
  0
VERTEX
  5
44D3A
  8
PRINT_2
  6
CONTINUOUS
 62
     7
 10
5.1243749471039157
 20
3.1412528530341621
 30
0.0
  0
VERTEX
  5
44D3B
  8
PRINT_2
  6
CONTINUOUS
 62
     7
 10
5.2179353041799876
 20
3.2679467886509039
 30
0.0
  0
VERTEX
  5
44D3C
  8
PRINT_2
  6
CONTINUOUS
 62
     7
 10
5.3442355886271713
 20
3.4428235789389472
 30
0.0
  0
VERTEX
  5
44D3D
  8
PRINT_2
  6
CONTINUOUS
 62
     7
 10
7.3768273791032613
 20
6.6606619019070701
 30
0.0
  0
VERTEX
  5
44D3E
  8
PRINT_2
  6
CONTINUOUS
 62
     7
 10
7.52271415977303
 20
6.9910768602354718
 30
0.0
  0
VERTEX
  5
44D3F
  8
PRINT_2
  6
CONTINUOUS
 62
     7
 10
7.7556467026553264
 20
7.5352068518176747
 30
0.0
  0
VERTEX
  5
44D40
  8
PRINT_2
  6
CONTINUOUS
 62
     7
 10
7.8567810143190684
 20
7.7794966040820386
 30
0.0
  0
VERTEX
  5
44D41
  8
PRINT_2
  6
CONTINUOUS
 62
     7
 10
7.9310205186097704
 20
7.9634405706471849
 30
0.0
  0
VERTEX
  5
44D42
  8
PRINT_2
  6
CONTINUOUS
 62
     7
 10
7.9797463738247378
 20
8.0867741912690558
 30
0.0
  0
VERTEX
  5
44D43
  8
PRINT_2
  6
CONTINUOUS
 62
     7
 10
8.0276534131205022
 20
8.2103798416339018
 30
0.0
  0
VERTEX
  5
44D44
  8
PRINT_2
  6
CONTINUOUS
 62
     7
 10
8.0747368768009835
 20
8.3344409186682338
 30
0.0
  0
VERTEX
  5
44D45
  8
PRINT_2
  6
CONTINUOUS
 62
     7
 10
8.1209282816599568
 20
8.458980086642871
 30
0.0
  0
VERTEX
  5
44D46
  8
PRINT_2
  6
CONTINUOUS
 62
     7
 10
8.1660645654724107
 20
8.5837591538144622
 30
0.0
  0
VERTEX
  5
44D47
  8
PRINT_2
  6
CONTINUOUS
 62
     7
 10
8.1883851858889614
 20
8.6467198131831324
 30
0.0
  0
VERTEX
  5
44D48
  8
PRINT_2
  6
CONTINUOUS
 62
     7
 10
8.2103525667801023
 20
8.7095682287485641
 30
0.0
  0
VERTEX
  5
44D49
  8
PRINT_2
  6
CONTINUOUS
 62
     7
 10
8.2319526887083327
 20
8.7722844216352769
 30
0.0
  0
VERTEX
  5
44D4A
  8
PRINT_2
  6
CONTINUOUS
 62
     7
 10
8.2579560264568386
 20
8.8483847799848192
 30
0.0
  0
VERTEX
  5
44D4B
  8
PRINT_2
  6
CONTINUOUS
 62
     7
 10
8.2836727603184652
 20
8.9249192665962092
 30
0.0
  0
VERTEX
  5
44D4C
  8
PRINT_2
  6
CONTINUOUS
 62
     7
 10
8.3089975101184308
 20
9.0015602681122271
 30
0.0
  0
VERTEX
  5
44D4D
  8
PRINT_2
  6
CONTINUOUS
 62
     7
 10
8.333935821339395
 20
9.0783048131324708
 30
0.0
  0
VERTEX
  5
44D4E
  8
PRINT_2
  6
CONTINUOUS
 62
     7
 10
8.3584932380560844
 20
9.1551499377861294
 30
0.0
  0
VERTEX
  5
44D4F
  8
PRINT_2
  6
CONTINUOUS
 62
     7
 10
8.3826753027191216
 20
9.2320926854759442
 30
0.0
  0
VERTEX
  5
44D50
  8
PRINT_2
  6
CONTINUOUS
 62
     7
 10
8.4064875559511734
 20
9.3091301066219945
 30
0.0
  0
VERTEX
  5
44D51
  8
PRINT_2
  6
CONTINUOUS
 62
     7
 10
8.429935536361242
 20
9.3862592584261826
 30
0.0
  0
VERTEX
  5
44D52
  8
PRINT_2
  6
CONTINUOUS
 62
     7
 10
8.4530247803673717
 20
9.4634772046285427
 30
0.0
  0
VERTEX
  5
44D53
  8
PRINT_2
  6
CONTINUOUS
 62
     7
 10
8.4757608220227638
 20
9.5407810152389363
 30
0.0
  0
VERTEX
  5
44D54
  8
PRINT_2
  6
CONTINUOUS
 62
     7
 10
8.4981491928624706
 20
9.6181677663025678
 30
0.0
  0
VERTEX
  5
44D55
  8
PRINT_2
  6
CONTINUOUS
 62
     7
 10
8.5201954217561564
 20
9.6956345396531987
 30
0.0
  0
VERTEX
  5
44D56
  8
PRINT_2
  6
CONTINUOUS
 62
     7
 10
8.5419050347671241
 20
9.7731784226554428
 30
0.0
  0
VERTEX
  5
44D57
  8
PRINT_2
  6
CONTINUOUS
 62
     7
 10
8.5632835550289172
 20
9.8507965079766269
 30
0.0
  0
VERTEX
  5
44D58
  8
PRINT_2
  6
CONTINUOUS
 62
     7
 10
8.584336502621511
 20
9.9284858933281122
 30
0.0
  0
VERTEX
  5
44D59
  8
PRINT_2
  6
CONTINUOUS
 62
     7
 10
8.6050693944646497
 20
10.00624368123696
 30
0.0
  0
VERTEX
  5
44D5A
  8
PRINT_2
  6
CONTINUOUS
 62
     7
 10
8.6254877442141265
 20
10.08406697880271
 30
0.0
  0
VERTEX
  5
44D5B
  8
PRINT_2
  6
CONTINUOUS
 62
     7
 10
8.6455970621660452
 20
10.161952897454579
 30
0.0
  0
VERTEX
  5
44D5C
  8
PRINT_2
  6
CONTINUOUS
 62
     7
 10
8.6654028551765805
 20
10.239898552742311
 30
0.0
  0
VERTEX
  5
44D5D
  8
PRINT_2
  6
CONTINUOUS
 62
     7
 10
8.684910626578727
 20
10.31790106409127
 30
0.0
  0
VERTEX
  5
44D5E
  8
PRINT_2
  6
CONTINUOUS
 62
     7
 10
8.7041258761105524
 20
10.39595755457737
 30
0.0
  0
VERTEX
  5
44D5F
  8
PRINT_2
  6
CONTINUOUS
 62
     7
 10
8.7230540998519785
 20
10.474065150713519
 30
0.0
  0
VERTEX
  5
44D60
  8
PRINT_2
  6
CONTINUOUS
 62
     7
 10
8.7417501149636934
 20
10.55242772243805
 30
0.0
  0
VERTEX
  5
44D61
  8
PRINT_2
  6
CONTINUOUS
 62
     7
 10
8.7781704963541785
 20
10.70865678216701
 30
0.0
  0
VERTEX
  5
44D62
  8
PRINT_2
  6
CONTINUOUS
 62
     7
 10
8.8135808851875197
 20
10.865260292912071
 30
0.0
  0
VERTEX
  5
44D63
  8
PRINT_2
  6
CONTINUOUS
 62
     7
 10
8.8479565567184295
 20
11.021916571990211
 30
0.0
  0
VERTEX
  5
44D64
  8
PRINT_2
  6
CONTINUOUS
 62
     7
 10
8.8661644984613304
 20
11.107086336596939
 30
0.0
  0
VERTEX
  5
44D65
  8
PRINT_2
  6
CONTINUOUS
 62
     7
 10
8.9017006117552029
 20
11.27640057257892
 30
0.0
  0
VERTEX
  5
44D66
  8
PRINT_2
  6
CONTINUOUS
 62
     7
 10
8.9364211627480756
 20
11.44605708277804
 30
0.0
  0
VERTEX
  5
44D67
  8
PRINT_2
  6
CONTINUOUS
 62
     7
 10
8.9702856752254547
 20
11.61590072119931
 30
0.0
  0
VERTEX
  5
44D68
  8
PRINT_2
  6
CONTINUOUS
 62
     7
 10
9.0032854403230402
 20
11.785927711173359
 30
0.0
  0
VERTEX
  5
44D69
  8
PRINT_2
  6
CONTINUOUS
 62
     7
 10
9.0354117462264991
 20
11.95613427347099
 30
0.0
  0
VERTEX
  5
44D6A
  8
PRINT_2
  6
CONTINUOUS
 62
     7
 10
9.0666558781633722
 20
12.126516626115739
 30
0.0
  0
VERTEX
  5
44D6B
  8
PRINT_2
  6
CONTINUOUS
 62
     7
 10
9.0970091184145474
 20
12.297070984275781
 30
0.0
  0
VERTEX
  5
44D6C
  8
PRINT_2
  6
CONTINUOUS
 62
     7
 10
9.1264627463231989
 20
12.4677935601195
 30
0.0
  0
VERTEX
  5
44D6D
  8
PRINT_2
  6
CONTINUOUS
 62
     7
 10
9.1550080383088925
 20
12.63868056267534
 30
0.0
  0
VERTEX
  5
44D6E
  8
PRINT_2
  6
CONTINUOUS
 62
     7
 10
9.1826362678818043
 20
12.809728197664461
 30
0.0
  0
VERTEX
  5
44D6F
  8
PRINT_2
  6
CONTINUOUS
 62
     7
 10
9.2093387056712004
 20
12.98093266738964
 30
0.0
  0
VERTEX
  5
44D70
  8
PRINT_2
  6
CONTINUOUS
 62
     7
 10
9.2351066194466256
 20
13.1522901705496
 30
0.0
  0
VERTEX
  5
44D71
  8
PRINT_2
  6
CONTINUOUS
 62
     7
 10
9.2599312741526472
 20
13.323796902105309
 30
0.0
  0
VERTEX
  5
44D72
  8
PRINT_2
  6
CONTINUOUS
 62
     7
 10
9.3359831966216831
 20
13.8706348869792
 30
0.0
  0
VERTEX
  5
44D73
  8
PRINT_2
  6
CONTINUOUS
 62
     7
 10
7.1777797250903026
 20
13.2789520651082
 30
0.0
 42
0.5092993063467474
  0
VERTEX
  5
44D74
  8
PRINT_2
  6
CONTINUOUS
 62
     7
 10
0.0994590049198365
 20
13.260941606184019
 30
0.0
  0
VERTEX
  5
44D75
  8
PRINT_2
  6
CONTINUOUS
 62
     7
 10
0.0327374793641298
 20
13.279460873060939
 30
0.0
  0
VERTEX
  5
44D76
  8
PRINT_2
  6
CONTINUOUS
 62
     7
 10
-0.03913248938008
 20
13.30129813844195
 30
0.0
  0
VERTEX
  5
44D77
  8
PRINT_2
  6
CONTINUOUS
 62
     7
 10
-2.0868407660249479
 20
13.866459863495789
 30
0.0
  0
SEQEND
  5
44D78
  8
PRINT_2
  6
CONTINUOUS
 62
     7
  0
POLYLINE
  5
44B41
  8
PRINT_3
  6
CONTINUOUS
 62
     9
 66
     1
 10
0.0
 20
0.0
 30
0.0
 70
     1
  0
VERTEX
  5
44D79
  8
PRINT_3
  6
CONTINUOUS
 62
     9
 10
0.0994590049198365
 20
13.260941606184019
 30
0.0
  0
VERTEX
  5
44D7A
  8
PRINT_3
  6
CONTINUOUS
 62
     9
 10
0.0327374793641298
 20
13.27946087306095
 30
0.0
  0
VERTEX
  5
44D7B
  8
PRINT_3
  6
CONTINUOUS
 62
     9
 10
-0.03913248938008
 20
13.30129813844195
 30
0.0
  0
VERTEX
  5
44D7C
  8
PRINT_3
  6
CONTINUOUS
 62
     9
 10
-2.0868407660249479
 20
13.866459863495789
 30
0.0
  0
VERTEX
  5
44D7D
  8
PRINT_3
  6
CONTINUOUS
 62
     9
 10
-1.952827366392867
 20
12.98033059831122
 30
0.0
  0
VERTEX
  5
44D7E
  8
PRINT_3
  6
CONTINUOUS
 62
     9
 10
-1.8588901449407871
 20
12.4185268562633
 30
0.0
  0
VERTEX
  5
44D7F
  8
PRINT_3
  6
CONTINUOUS
 62
     9
 10
-1.756033035112565
 20
11.85889839683966
 30
0.0
  0
VERTEX
  5
44D80
  8
PRINT_3
  6
CONTINUOUS
 62
     9
 10
-1.740267555164237
 20
11.778028320631821
 30
0.0
  0
VERTEX
  5
44D81
  8
PRINT_3
  6
CONTINUOUS
 62
     9
 10
-1.6926928714760541
 20
11.53995250406385
 30
0.0
  0
VERTEX
  5
44D82
  8
PRINT_3
  6
CONTINUOUS
 62
     9
 10
-1.6598576898071391
 20
11.380878760958289
 30
0.0
  0
VERTEX
  5
44D83
  8
PRINT_3
  6
CONTINUOUS
 62
     9
 10
-1.6261625347202651
 20
11.2220408937528
 30
0.0
  0
VERTEX
  5
44D84
  8
PRINT_3
  6
CONTINUOUS
 62
     9
 10
-1.5915204106685079
 20
11.063313150698519
 30
0.0
  0
VERTEX
  5
44D85
  8
PRINT_3
  6
CONTINUOUS
 62
     9
 10
-1.55587466757575
 20
10.904717294359131
 30
0.0
  0
VERTEX
  5
44D86
  8
PRINT_3
  6
CONTINUOUS
 62
     9
 10
-1.519218737079427
 20
10.746491718673591
 30
0.0
  0
VERTEX
  5
44D87
  8
PRINT_3
  6
CONTINUOUS
 62
     9
 10
-1.5004016084986631
 20
10.667129876686831
 30
0.0
  0
VERTEX
  5
44D88
  8
PRINT_3
  6
CONTINUOUS
 62
     9
 10
-1.481346736257904
 20
10.58801992327167
 30
0.0
  0
VERTEX
  5
44D89
  8
PRINT_3
  6
CONTINUOUS
 62
     9
 10
-1.4619983359408619
 20
10.508959351611651
 30
0.0
  0
VERTEX
  5
44D8A
  8
PRINT_3
  6
CONTINUOUS
 62
     9
 10
-1.4423492844840951
 20
10.42995091306098
 30
0.0
  0
VERTEX
  5
44D8B
  8
PRINT_3
  6
CONTINUOUS
 62
     9
 10
-1.4223924536813679
 20
10.35099736445326
 30
0.0
  0
VERTEX
  5
44D8C
  8
PRINT_3
  6
CONTINUOUS
 62
     9
 10
-1.4021207103250639
 20
10.27210146846603
 30
0.0
  0
VERTEX
  5
44D8D
  8
PRINT_3
  6
CONTINUOUS
 62
     9
 10
-1.3815269163409729
 20
10.19326599391651
 30
0.0
  0
VERTEX
  5
44D8E
  8
PRINT_3
  6
CONTINUOUS
 62
     9
 10
-1.360603928953892
 20
10.11449371613547
 30
0.0
  0
VERTEX
  5
44D8F
  8
PRINT_3
  6
CONTINUOUS
 62
     9
 10
-1.3393446008552981
 20
10.035787417301959
 30
0.0
  0
VERTEX
  5
44D90
  8
PRINT_3
  6
CONTINUOUS
 62
     9
 10
-1.3177417803894249
 20
9.9571498868004511
 30
0.0
  0
VERTEX
  5
44D91
  8
PRINT_3
  6
CONTINUOUS
 62
     9
 10
-1.2957883117516209
 20
9.878583921573977
 30
0.0
  0
VERTEX
  5
44D92
  8
PRINT_3
  6
CONTINUOUS
 62
     9
 10
-1.2734770352022049
 20
9.8000923264819164
 30
0.0
  0
VERTEX
  5
44D93
  8
PRINT_3
  6
CONTINUOUS
 62
     9
 10
-1.250800787292305
 20
9.7216779146487795
 30
0.0
  0
VERTEX
  5
44D94
  8
PRINT_3
  6
CONTINUOUS
 62
     9
 10
-1.22775240111865
 20
9.6433435078586012
 30
0.0
  0
VERTEX
  5
44D95
  8
PRINT_3
  6
CONTINUOUS
 62
     9
 10
-1.2042850177502791
 20
9.5649593710039653
 30
0.0
  0
VERTEX
  5
44D96
  8
PRINT_3
  6
CONTINUOUS
 62
     9
 10
-1.1716753459063221
 20
9.4583472776208595
 30
0.0
  0
VERTEX
  5
44D97
  8
PRINT_3
  6
CONTINUOUS
 62
     9
 10
-1.1381573851835749
 20
9.3516209340355658
 30
0.0
  0
VERTEX
  5
44D98
  8
PRINT_3
  6
CONTINUOUS
 62
     9
 10
-1.0866455578395171
 20
9.1926306385230134
 30
0.0
  0
VERTEX
  5
44D99
  8
PRINT_3
  6
CONTINUOUS
 62
     9
 10
-1.0334488871586269
 20
9.0340809377086657
 30
0.0
  0
VERTEX
  5
44D9A
  8
PRINT_3
  6
CONTINUOUS
 62
     9
 10
-0.9787215588103919
 20
8.8761781288857549
 30
0.0
  0
VERTEX
  5
44D9B
  8
PRINT_3
  6
CONTINUOUS
 62
     9
 10
-0.9224858435020166
 20
8.7187391788215933
 30
0.0
  0
VERTEX
  5
44D9C
  8
PRINT_3
  6
CONTINUOUS
 62
     9
 10
-0.8455413955653767
 20
8.5101852094201291
 30
0.0
  0
VERTEX
  5
44D9D
  8
PRINT_3
  6
CONTINUOUS
 62
     9
 10
-0.7662418740311808
 20
8.3023713530191543
 30
0.0
  0
VERTEX
  5
44D9E
  8
PRINT_3
  6
CONTINUOUS
 62
     9
 10
-0.6641917376190918
 20
8.0438517291833733
 30
0.0
  0
VERTEX
  5
44D9F
  8
PRINT_3
  6
CONTINUOUS
 62
     9
 10
-0.0876253195677777
 20
6.649015289854872
 30
0.0
  0
VERTEX
  5
44DA0
  8
PRINT_3
  6
CONTINUOUS
 62
     9
 10
1.899738125102842
 20
3.4481507339581872
 30
0.0
  0
VERTEX
  5
44DA1
  8
PRINT_3
  6
CONTINUOUS
 62
     9
 10
1.9229233331226681
 20
3.4133656286062428
 30
0.0
  0
VERTEX
  5
44DA2
  8
PRINT_3
  6
CONTINUOUS
 62
     9
 10
2.0069289017482812
 20
3.2902011143490171
 30
0.0
  0
VERTEX
  5
44DA3
  8
PRINT_3
  6
CONTINUOUS
 62
     9
 10
2.0933429449425058
 20
3.167796897964763
 30
0.0
  0
VERTEX
  5
44DA4
  8
PRINT_3
  6
CONTINUOUS
 62
     9
 10
2.2034440981474139
 20
3.0172159253783799
 30
0.0
  0
VERTEX
  5
44DA5
  8
PRINT_3
  6
CONTINUOUS
 62
     9
 10
2.3386319391007362
 20
2.839199665312691
 30
0.0
  0
VERTEX
  5
44DA6
  8
PRINT_3
  6
CONTINUOUS
 62
     9
 10
2.5456692267161709
 20
2.5780578493181139
 30
0.0
  0
VERTEX
  5
44DA7
  8
PRINT_3
  6
CONTINUOUS
 62
     9
 10
2.6050380897650589
 20
2.5064180235154372
 30
0.0
  0
VERTEX
  5
44DA8
  8
PRINT_3
  6
CONTINUOUS
 62
     9
 10
2.7219309463500281
 20
2.3680548474287231
 30
0.0
  0
VERTEX
  5
44DA9
  8
PRINT_3
  6
CONTINUOUS
 62
     9
 10
2.8116040266871631
 20
2.264585601456659
 30
0.0
  0
VERTEX
  5
44DAA
  8
PRINT_3
  6
CONTINUOUS
 62
     9
 10
2.9024295084258109
 20
2.1623525733699012
 30
0.0
  0
VERTEX
  5
44DAB
  8
PRINT_3
  6
CONTINUOUS
 62
     9
 10
2.9641783238108839
 20
2.0944012857160459
 30
0.0
  0
VERTEX
  5
44DAC
  8
PRINT_3
  6
CONTINUOUS
 62
     9
 10
3.026496602790544
 20
2.0271438859581541
 30
0.0
  0
VERTEX
  5
44DAD
  8
PRINT_3
  6
CONTINUOUS
 62
     9
 10
3.089600782980539
 20
1.960428115940559
 30
0.0
  0
VERTEX
  5
44DAE
  8
PRINT_3
  6
CONTINUOUS
 62
     9
 10
3.1535268480094198
 20
1.8943007107238261
 30
0.0
  0
VERTEX
  5
44DAF
  8
PRINT_3
  6
CONTINUOUS
 62
     9
 10
3.218310821794645
 20
1.8288087639210739
 30
0.0
  0
VERTEX
  5
44DB0
  8
PRINT_3
  6
CONTINUOUS
 62
     9
 10
3.283699629216144
 20
1.7642850304910811
 30
0.0
  0
VERTEX
  5
44DB1
  8
PRINT_3
  6
CONTINUOUS
 62
     9
 10
3.317163348274391
 20
1.7318821908613271
 30
0.0
  0
VERTEX
  5
44DB2
  8
PRINT_3
  6
CONTINUOUS
 62
     9
 10
3.3505857849579139
 20
1.6999375122692439
 30
0.0
  0
VERTEX
  5
44DB3
  8
PRINT_3
  6
CONTINUOUS
 62
     9
 10
3.3842496812653589
 20
1.6681876121729571
 30
0.0
  0
VERTEX
  5
44DB4
  8
PRINT_3
  6
CONTINUOUS
 62
     9
 10
3.4181595125729132
 20
1.6366385728856021
 30
0.0
  0
VERTEX
  5
44DB5
  8
PRINT_3
  6
CONTINUOUS
 62
     9
 10
3.6232831909127721
 20
1.4484372673729811
 30
0.0
  0
VERTEX
  5
44DB6
  8
PRINT_3
  6
CONTINUOUS
 62
     9
 10
3.8367279016069058
 20
1.650346982452064
 30
0.0
  0
VERTEX
  5
44DB7
  8
PRINT_3
  6
CONTINUOUS
 62
     9
 10
3.9455952409022208
 20
1.756758370548468
 30
0.0
  0
VERTEX
  5
44DB8
  8
PRINT_3
  6
CONTINUOUS
 62
     9
 10
4.0942927167523626
 20
1.909405781634405
 30
0.0
  0
VERTEX
  5
44DB9
  8
PRINT_3
  6
CONTINUOUS
 62
     9
 10
4.3962671957468444
 20
2.2402473651747381
 30
0.0
  0
VERTEX
  5
44DBA
  8
PRINT_3
  6
CONTINUOUS
 62
     9
 10
4.4324798675205983
 20
2.2815344802044142
 30
0.0
  0
VERTEX
  5
44DBB
  8
PRINT_3
  6
CONTINUOUS
 62
     9
 10
4.5013018189361409
 20
2.3609927965990072
 30
0.0
  0
VERTEX
  5
44DBC
  8
PRINT_3
  6
CONTINUOUS
 62
     9
 10
4.5696106832711498
 20
2.441168919298335
 30
0.0
  0
VERTEX
  5
44DBD
  8
PRINT_3
  6
CONTINUOUS
 62
     9
 10
4.6373997494551134
 20
2.5220293765974868
 30
0.0
  0
VERTEX
  5
44DBE
  8
PRINT_3
  6
CONTINUOUS
 62
     9
 10
4.7374638787775316
 20
2.643760313269766
 30
0.0
  0
VERTEX
  5
44DBF
  8
PRINT_3
  6
CONTINUOUS
 62
     9
 10
4.8362443505475587
 20
2.7667186502857248
 30
0.0
  0
VERTEX
  5
44DC0
  8
PRINT_3
  6
CONTINUOUS
 62
     9
 10
4.9336273810315703
 20
2.8906572384180431
 30
0.0
  0
VERTEX
  5
44DC1
  8
PRINT_3
  6
CONTINUOUS
 62
     9
 10
5.02965643501605
 20
3.015520450542283
 30
0.0
  0
VERTEX
  5
44DC2
  8
PRINT_3
  6
CONTINUOUS
 62
     9
 10
5.1243749471039157
 20
3.1412528530341599
 30
0.0
  0
VERTEX
  5
44DC3
  8
PRINT_3
  6
CONTINUOUS
 62
     9
 10
5.2179353041799876
 20
3.267946788650903
 30
0.0
  0
VERTEX
  5
44DC4
  8
PRINT_3
  6
CONTINUOUS
 62
     9
 10
5.3442355886271713
 20
3.4428235789389419
 30
0.0
  0
VERTEX
  5
44DC5
  8
PRINT_3
  6
CONTINUOUS
 62
     9
 10
7.3768273791032613
 20
6.6606619019070763
 30
0.0
  0
VERTEX
  5
44DC6
  8
PRINT_3
  6
CONTINUOUS
 62
     9
 10
7.52271415977303
 20
6.9910768602354656
 30
0.0
  0
VERTEX
  5
44DC7
  8
PRINT_3
  6
CONTINUOUS
 62
     9
 10
7.7556467026553264
 20
7.5352068518176756
 30
0.0
  0
VERTEX
  5
44DC8
  8
PRINT_3
  6
CONTINUOUS
 62
     9
 10
7.8567810143190684
 20
7.7794966040820412
 30
0.0
  0
VERTEX
  5
44DC9
  8
PRINT_3
  6
CONTINUOUS
 62
     9
 10
7.9310205186097704
 20
7.9634405706471787
 30
0.0
  0
VERTEX
  5
44DCA
  8
PRINT_3
  6
CONTINUOUS
 62
     9
 10
7.9797463738247378
 20
8.0867741912690576
 30
0.0
  0
VERTEX
  5
44DCB
  8
PRINT_3
  6
CONTINUOUS
 62
     9
 10
8.0276534131205022
 20
8.2103798416338947
 30
0.0
  0
VERTEX
  5
44DCC
  8
PRINT_3
  6
CONTINUOUS
 62
     9
 10
8.0747368768009835
 20
8.3344409186682356
 30
0.0
  0
VERTEX
  5
44DCD
  8
PRINT_3
  6
CONTINUOUS
 62
     9
 10
8.1209282816599568
 20
8.4589800866428675
 30
0.0
  0
VERTEX
  5
44DCE
  8
PRINT_3
  6
CONTINUOUS
 62
     9
 10
8.1660645654724107
 20
8.5837591538144693
 30
0.0
  0
VERTEX
  5
44DCF
  8
PRINT_3
  6
CONTINUOUS
 62
     9
 10
8.1883851858889614
 20
8.6467198131831253
 30
0.0
  0
VERTEX
  5
44DD0
  8
PRINT_3
  6
CONTINUOUS
 62
     9
 10
8.2103525667801023
 20
8.7095682287485658
 30
0.0
  0
VERTEX
  5
44DD1
  8
PRINT_3
  6
CONTINUOUS
 62
     9
 10
8.2319526887083327
 20
8.7722844216352769
 30
0.0
  0
VERTEX
  5
44DD2
  8
PRINT_3
  6
CONTINUOUS
 62
     9
 10
8.2579560264568386
 20
8.8483847799848263
 30
0.0
  0
VERTEX
  5
44DD3
  8
PRINT_3
  6
CONTINUOUS
 62
     9
 10
8.2836727603184652
 20
8.9249192665962056
 30
0.0
  0
VERTEX
  5
44DD4
  8
PRINT_3
  6
CONTINUOUS
 62
     9
 10
8.3089975101184308
 20
9.0015602681122289
 30
0.0
  0
VERTEX
  5
44DD5
  8
PRINT_3
  6
CONTINUOUS
 62
     9
 10
8.333935821339395
 20
9.0783048131324762
 30
0.0
  0
VERTEX
  5
44DD6
  8
PRINT_3
  6
CONTINUOUS
 62
     9
 10
8.3584932380560844
 20
9.1551499377861347
 30
0.0
  0
VERTEX
  5
44DD7
  8
PRINT_3
  6
CONTINUOUS
 62
     9
 10
8.3826753027191216
 20
9.2320926854759477
 30
0.0
  0
VERTEX
  5
44DD8
  8
PRINT_3
  6
CONTINUOUS
 62
     9
 10
8.4064875559511734
 20
9.3091301066219927
 30
0.0
  0
VERTEX
  5
44DD9
  8
PRINT_3
  6
CONTINUOUS
 62
     9
 10
8.429935536361242
 20
9.386259258426179
 30
0.0
  0
VERTEX
  5
44DDA
  8
PRINT_3
  6
CONTINUOUS
 62
     9
 10
8.4530247803673717
 20
9.4634772046285462
 30
0.0
  0
VERTEX
  5
44DDB
  8
PRINT_3
  6
CONTINUOUS
 62
     9
 10
8.4757608220227638
 20
9.5407810152389345
 30
0.0
  0
VERTEX
  5
44DDC
  8
PRINT_3
  6
CONTINUOUS
 62
     9
 10
8.4981491928624706
 20
9.6181677663025624
 30
0.0
  0
VERTEX
  5
44DDD
  8
PRINT_3
  6
CONTINUOUS
 62
     9
 10
8.5201954217561564
 20
9.6956345396531987
 30
0.0
  0
VERTEX
  5
44DDE
  8
PRINT_3
  6
CONTINUOUS
 62
     9
 10
8.5419050347671241
 20
9.7731784226554481
 30
0.0
  0
VERTEX
  5
44DDF
  8
PRINT_3
  6
CONTINUOUS
 62
     9
 10
8.5632835550289172
 20
9.8507965079766251
 30
0.0
  0
VERTEX
  5
44DE0
  8
PRINT_3
  6
CONTINUOUS
 62
     9
 10
8.584336502621511
 20
9.9284858933281157
 30
0.0
  0
VERTEX
  5
44DE1
  8
PRINT_3
  6
CONTINUOUS
 62
     9
 10
8.6050693944646497
 20
10.00624368123697
 30
0.0
  0
VERTEX
  5
44DE2
  8
PRINT_3
  6
CONTINUOUS
 62
     9
 10
8.6254877442141265
 20
10.084066978802721
 30
0.0
  0
VERTEX
  5
44DE3
  8
PRINT_3
  6
CONTINUOUS
 62
     9
 10
8.6455970621660452
 20
10.161952897454579
 30
0.0
  0
VERTEX
  5
44DE4
  8
PRINT_3
  6
CONTINUOUS
 62
     9
 10
8.6654028551765805
 20
10.2398985527423
 30
0.0
  0
VERTEX
  5
44DE5
  8
PRINT_3
  6
CONTINUOUS
 62
     9
 10
8.684910626578727
 20
10.31790106409127
 30
0.0
  0
VERTEX
  5
44DE6
  8
PRINT_3
  6
CONTINUOUS
 62
     9
 10
8.7041258761105524
 20
10.395957554577359
 30
0.0
  0
VERTEX
  5
44DE7
  8
PRINT_3
  6
CONTINUOUS
 62
     9
 10
8.7230540998519785
 20
10.474065150713511
 30
0.0
  0
VERTEX
  5
44DE8
  8
PRINT_3
  6
CONTINUOUS
 62
     9
 10
8.7417501149636934
 20
10.55242772243805
 30
0.0
  0
VERTEX
  5
44DE9
  8
PRINT_3
  6
CONTINUOUS
 62
     9
 10
8.7781704963541785
 20
10.70865678216701
 30
0.0
  0
VERTEX
  5
44DEA
  8
PRINT_3
  6
CONTINUOUS
 62
     9
 10
8.8135808851875197
 20
10.865260292912071
 30
0.0
  0
VERTEX
  5
44DEB
  8
PRINT_3
  6
CONTINUOUS
 62
     9
 10
8.8479565567184295
 20
11.02191657199022
 30
0.0
  0
VERTEX
  5
44DEC
  8
PRINT_3
  6
CONTINUOUS
 62
     9
 10
8.8661644984613304
 20
11.10708633659695
 30
0.0
  0
VERTEX
  5
44DED
  8
PRINT_3
  6
CONTINUOUS
 62
     9
 10
8.9017006117552029
 20
11.27640057257892
 30
0.0
  0
VERTEX
  5
44DEE
  8
PRINT_3
  6
CONTINUOUS
 62
     9
 10
8.9364211627480756
 20
11.44605708277804
 30
0.0
  0
VERTEX
  5
44DEF
  8
PRINT_3
  6
CONTINUOUS
 62
     9
 10
8.9702856752254547
 20
11.61590072119931
 30
0.0
  0
VERTEX
  5
44DF0
  8
PRINT_3
  6
CONTINUOUS
 62
     9
 10
9.0032854403230402
 20
11.785927711173359
 30
0.0
  0
VERTEX
  5
44DF1
  8
PRINT_3
  6
CONTINUOUS
 62
     9
 10
9.0354117462264991
 20
11.95613427347099
 30
0.0
  0
VERTEX
  5
44DF2
  8
PRINT_3
  6
CONTINUOUS
 62
     9
 10
9.0666558781633722
 20
12.126516626115739
 30
0.0
  0
VERTEX
  5
44DF3
  8
PRINT_3
  6
CONTINUOUS
 62
     9
 10
9.0970091184145474
 20
12.29707098427577
 30
0.0
  0
VERTEX
  5
44DF4
  8
PRINT_3
  6
CONTINUOUS
 62
     9
 10
9.1264627463231989
 20
12.4677935601195
 30
0.0
  0
VERTEX
  5
44DF5
  8
PRINT_3
  6
CONTINUOUS
 62
     9
 10
9.1550080383088925
 20
12.638680562675351
 30
0.0
  0
VERTEX
  5
44DF6
  8
PRINT_3
  6
CONTINUOUS
 62
     9
 10
9.1826362678818043
 20
12.809728197664461
 30
0.0
  0
VERTEX
  5
44DF7
  8
PRINT_3
  6
CONTINUOUS
 62
     9
 10
9.2093387056712004
 20
12.98093266738964
 30
0.0
  0
VERTEX
  5
44DF8
  8
PRINT_3
  6
CONTINUOUS
 62
     9
 10
9.2351066194466256
 20
13.1522901705496
 30
0.0
  0
VERTEX
  5
44DF9
  8
PRINT_3
  6
CONTINUOUS
 62
     9
 10
9.2599312741526472
 20
13.323796902105309
 30
0.0
  0
VERTEX
  5
44DFA
  8
PRINT_3
  6
CONTINUOUS
 62
     9
 10
9.3359831966216831
 20
13.8706348869792
 30
0.0
  0
VERTEX
  5
44DFB
  8
PRINT_3
  6
CONTINUOUS
 62
     9
 10
7.1777797250903026
 20
13.2789520651082
 30
0.0
 42
0.5092993063467473
  0
SEQEND
  5
44DFC
  8
PRINT_3
  6
CONTINUOUS
 62
     9
  0
POLYLINE
  5
44BC4
  8
PRINT_1
 62
   250
 66
     1
 10
0.0
 20
0.0
 30
0.0
 70
     1
  0
VERTEX
  5
44DFD
  8
PRINT_1
 62
   250
 10
3.675838391565974
 20
3.703068296945407
 30
0.0
  0
VERTEX
  5
44DFE
  8
PRINT_1
 62
   250
 10
3.6406233077949959
 20
3.6901726324658881
 30
0.0
  0
VERTEX
  5
44DFF
  8
PRINT_1
 62
   250
 10
3.6393024176690849
 20
3.6774920872572419
 30
0.0
  0
VERTEX
  5
44E00
  8
PRINT_1
 62
   250
 10
3.6393024176690849
 20
3.424667708861111
 30
0.0
  0
VERTEX
  5
44E01
  8
PRINT_1
 62
   250
 10
3.6399368873001232
 20
3.4152564093340878
 30
0.0
  0
VERTEX
  5
44E02
  8
PRINT_1
 62
   250
 10
3.675838391565974
 20
3.4029473221572251
 30
0.0
  0
VERTEX
  5
44E03
  8
PRINT_1
 62
   250
 10
3.675838391565974
 20
3.3323208836081331
 30
0.0
  0
VERTEX
  5
44E04
  8
PRINT_1
 62
   250
 10
3.806894439988354
 20
3.3323208836081331
 30
0.0
  0
VERTEX
  5
44E05
  8
PRINT_1
 62
   250
 10
3.8247564716712641
 20
3.3369217099507051
 30
0.0
  0
VERTEX
  5
44E06
  8
PRINT_1
 62
   250
 10
3.8312517559196091
 20
3.349100367916336
 30
0.0
  0
VERTEX
  5
44E07
  8
PRINT_1
 62
   250
 10
3.8188024611102942
 20
3.366421125911895
 30
0.0
  0
VERTEX
  5
44E08
  8
PRINT_1
 62
   250
 10
3.8182611874229329
 20
3.366691762755579
 30
0.0
  0
VERTEX
  5
44E09
  8
PRINT_1
 62
   250
 10
3.8055412557699522
 20
3.3712925890981502
 30
0.0
  0
VERTEX
  5
44E0A
  8
PRINT_1
 62
   250
 10
3.8020229768020921
 20
3.3748108680659961
 30
0.0
  0
VERTEX
  5
44E0B
  8
PRINT_1
 62
   250
 10
3.7982340609905658
 20
3.3913197155305181
 30
0.0
  0
VERTEX
  5
44E0C
  8
PRINT_1
 62
   250
 10
3.7982340609905658
 20
3.7150013805725952
 30
0.0
  0
VERTEX
  5
44E0D
  8
PRINT_1
 62
   250
 10
3.8020229768020921
 20
3.7315102280371129
 30
0.0
  0
VERTEX
  5
44E0E
  8
PRINT_1
 62
   250
 10
3.8055412557699522
 20
3.7355697806923271
 30
0.0
  0
VERTEX
  5
44E0F
  8
PRINT_1
 62
   250
 10
3.8182611874229329
 20
3.739629333347533
 30
0.0
  0
VERTEX
  5
44E10
  8
PRINT_1
 62
   250
 10
3.8312517559196091
 20
3.7564088176557351
 30
0.0
  0
VERTEX
  5
44E11
  8
PRINT_1
 62
   250
 10
3.8312517559196091
 20
3.7572207281867769
 30
0.0
  0
VERTEX
  5
44E12
  8
PRINT_1
 62
   250
 10
3.8247564716712641
 20
3.7696700229960882
 30
0.0
  0
VERTEX
  5
44E13
  8
PRINT_1
 62
   250
 10
3.806894439988354
 20
3.774000212494979
 30
0.0
  0
VERTEX
  5
44E14
  8
PRINT_1
 62
   250
 10
3.675838391565974
 20
3.774000212494979
 30
0.0
  0
SEQEND
  5
44E15
  8
PRINT_1
 62
   250
  0
POLYLINE
  5
44BDC
  8
PRINT_1
 62
   250
 66
     1
 10
0.0
 20
0.0
 30
0.0
 70
     1
  0
VERTEX
  5
44E16
  8
PRINT_1
 62
   250
 10
3.6066231756646512
 20
3.730968954349752
 30
0.0
  0
VERTEX
  5
44E17
  8
PRINT_1
 62
   250
 10
3.5960683387611141
 20
3.7177077490094028
 30
0.0
  0
VERTEX
  5
44E18
  8
PRINT_1
 62
   250
 10
3.5920087861059069
 20
3.7060703647311328
 30
0.0
  0
VERTEX
  5
44E19
  8
PRINT_1
 62
   250
 10
3.5893024176690882
 20
3.6800892277377879
 30
0.0
  0
VERTEX
  5
44E1A
  8
PRINT_1
 62
   250
 10
3.5893024176690882
 20
3.4229842262411552
 30
0.0
  0
VERTEX
  5
44E1B
  8
PRINT_1
 62
   250
 10
3.5909262387311851
 20
3.3988975471535769
 30
0.0
  0
VERTEX
  5
44E1C
  8
PRINT_1
 62
   250
 10
3.5976921598231959
 20
3.3829299733764171
 30
0.0
  0
VERTEX
  5
44E1D
  8
PRINT_1
 62
   250
 10
3.6068938125083321
 20
3.3737283206912738
 30
0.0
  0
VERTEX
  5
44E1E
  8
PRINT_1
 62
   250
 10
3.6258383915659769
 20
3.3672330364429399
 30
0.0
  0
VERTEX
  5
44E1F
  8
PRINT_1
 62
   250
 10
3.6258383915659769
 20
3.3323208836081331
 30
0.0
  0
VERTEX
  5
44E20
  8
PRINT_1
 62
   250
 10
3.6244852073475751
 20
3.3323208836081331
 30
0.0
  0
VERTEX
  5
44E21
  8
PRINT_1
 62
   250
 10
3.5976921598231959
 20
3.3336740678265362
 30
0.0
  0
VERTEX
  5
44E22
  8
PRINT_1
 62
   250
 10
3.576041212328732
 20
3.337462983638066
 30
0.0
  0
VERTEX
  5
44E23
  8
PRINT_1
 62
   250
 10
3.5581791806458218
 20
3.3442289047300839
 30
0.0
  0
VERTEX
  5
44E24
  8
PRINT_1
 62
   250
 10
3.5354456857766361
 20
3.3569488363830722
 30
0.0
  0
VERTEX
  5
44E25
  8
PRINT_1
 62
   250
 10
3.5265146699351808
 20
3.3631734837877301
 30
0.0
  0
VERTEX
  5
44E26
  8
PRINT_1
 62
   250
 10
3.508111364564896
 20
3.3785997838775259
 30
0.0
  0
VERTEX
  5
44E27
  8
PRINT_1
 62
   250
 10
3.4918731539440548
 20
3.3959205418730889
 30
0.0
  0
VERTEX
  5
44E28
  8
PRINT_1
 62
   250
 10
3.4778000380726581
 20
3.4159476683054599
 30
0.0
  0
VERTEX
  5
44E29
  8
PRINT_1
 62
   250
 10
3.4658920169507041
 20
3.437869252643591
 30
0.0
  0
VERTEX
  5
44E2A
  8
PRINT_1
 62
   250
 10
3.4575022747966102
 20
3.457896379075962
 30
0.0
  0
VERTEX
  5
44E2B
  8
PRINT_1
 62
   250
 10
3.4507363537045981
 20
3.4803592371014571
 30
0.0
  0
VERTEX
  5
44E2C
  8
PRINT_1
 62
   250
 10
3.4455942536746562
 20
3.5039046425016771
 30
0.0
  0
VERTEX
  5
44E2D
  8
PRINT_1
 62
   250
 10
3.4426172483941708
 20
3.5288032321202958
 30
0.0
  0
VERTEX
  5
44E2E
  8
PRINT_1
 62
   250
 10
3.441534701019449
 20
3.5550550059573212
 30
0.0
  0
VERTEX
  5
44E2F
  8
PRINT_1
 62
   250
 10
3.441805337863129
 20
3.5661511165482298
 30
0.0
  0
VERTEX
  5
44E30
  8
PRINT_1
 62
   250
 10
3.4436997957688931
 20
3.5915909798542098
 30
0.0
  0
VERTEX
  5
44E31
  8
PRINT_1
 62
   250
 10
3.4474887115804189
 20
3.6156776589417881
 30
0.0
  0
VERTEX
  5
44E32
  8
PRINT_1
 62
   250
 10
3.453172085297723
 20
3.638952427498328
 30
0.0
  0
VERTEX
  5
44E33
  8
PRINT_1
 62
   250
 10
3.4607499169207752
 20
3.6611446486801431
 30
0.0
  0
VERTEX
  5
44E34
  8
PRINT_1
 62
   250
 10
3.4710341169806318
 20
3.6830662330182768
 30
0.0
  0
VERTEX
  5
44E35
  8
PRINT_1
 62
   250
 10
3.483754048633628
 20
3.7036346331380048
 30
0.0
  0
VERTEX
  5
44E36
  8
PRINT_1
 62
   250
 10
3.4994509855671079
 20
3.72176730166461
 30
0.0
  0
VERTEX
  5
44E37
  8
PRINT_1
 62
   250
 10
3.5173130172500322
 20
3.7377348754417699
 30
0.0
  0
VERTEX
  5
44E38
  8
PRINT_1
 62
   250
 10
3.530574222590388
 20
3.747477801814274
 30
0.0
  0
VERTEX
  5
44E39
  8
PRINT_1
 62
   250
 10
3.5522251700848382
 20
3.759656459779904
 30
0.0
  0
VERTEX
  5
44E3A
  8
PRINT_1
 62
   250
 10
3.5744173912666488
 20
3.7680462019340051
 30
0.0
  0
VERTEX
  5
44E3B
  8
PRINT_1
 62
   250
 10
3.596880249292155
 20
3.7726470282765772
 30
0.0
  0
VERTEX
  5
44E3C
  8
PRINT_1
 62
   250
 10
3.6006691651036808
 20
3.7729176651202572
 30
0.0
  0
VERTEX
  5
44E3D
  8
PRINT_1
 62
   250
 10
3.6258383915659769
 20
3.774000212494979
 30
0.0
  0
VERTEX
  5
44E3E
  8
PRINT_1
 62
   250
 10
3.6258383915659769
 20
3.7380055122854512
 30
0.0
  0
SEQEND
  5
44E3F
  8
PRINT_1
 62
   250
  0
POLYLINE
  5
44C05
  8
PRINT_1
 62
   250
 66
     1
 10
0.0
 20
0.0
 30
0.0
 70
     1
  0
VERTEX
  5
44E40
  8
PRINT_1
 62
   250
 10
3.739067491945661
 20
7.5532268894331462
 30
0.0
  0
VERTEX
  5
44E41
  8
PRINT_1
 62
   250
 10
3.489067491945661
 20
7.5532268894331462
 30
0.0
  0
VERTEX
  5
44E42
  8
PRINT_1
 62
   250
 10
3.489067491945661
 20
8.5532268894331462
 30
0.0
  0
VERTEX
  5
44E43
  8
PRINT_1
 62
   250
 10
3.3740461701015638
 20
8.415233002599761
 30
0.0
  0
VERTEX
  5
44E44
  8
PRINT_1
 62
   250
 10
3.614067491945661
 20
8.9308966914433778
 30
0.0
  0
VERTEX
  5
44E45
  8
PRINT_1
 62
   250
 10
3.8540888137897582
 20
8.415233002599761
 30
0.0
  0
VERTEX
  5
44E46
  8
PRINT_1
 62
   250
 10
3.739067491945661
 20
8.5532268894331462
 30
0.0
  0
SEQEND
  5
44E47
  8
PRINT_1
 62
   250
  0
POLYLINE
  5
44C0C
  8
PRINT_1
  6
CONTINUOUS
 62
   250
 66
     1
 10
0.0
 20
0.0
 30
0.0
 70
     1
  0
VERTEX
  5
44E48
  8
PRINT_1
  6
CONTINUOUS
 62
   250
 10
4.1381851836569012
 20
6.8631655280392847
 30
0.0
  0
VERTEX
  5
44E49
  8
PRINT_1
  6
CONTINUOUS
 62
   250
 10
3.1381851836569008
 20
6.8631655280392847
 30
0.0
  0
VERTEX
  5
44E4A
  8
PRINT_1
  6
CONTINUOUS
 62
   250
 10
3.1381851836569008
 20
7.3631655280392847
 30
0.0
  0
VERTEX
  5
44E4B
  8
PRINT_1
  6
CONTINUOUS
 62
   250
 10
4.1381851836569012
 20
7.3631655280392847
 30
0.0
  0
SEQEND
  5
44E4C
  8
PRINT_1
  6
CONTINUOUS
 62
   250
  0
POLYLINE
  5
44C10
  8
PRINT_1
  6
CONTINUOUS
 62
   250
 66
     1
 10
0.0
 20
0.0
 30
0.0
 70
     1
  0
VERTEX
  5
44E4D
  8
PRINT_1
  6
CONTINUOUS
 62
   250
 10
-0.0895831920075381
 20
12.505002075037631
 30
0.0
  0
VERTEX
  5
44E4E
  8
PRINT_1
  6
CONTINUOUS
 62
   250
 10
0.4104168079924762
 20
12.505002075037631
 30
0.0
  0
VERTEX
  5
44E4F
  8
PRINT_1
  6
CONTINUOUS
 62
   250
 10
0.4104168079924762
 20
12.005002075037631
 30
0.0
  0
VERTEX
  5
44E50
  8
PRINT_1
  6
CONTINUOUS
 62
   250
 10
-0.0895831920075381
 20
12.005002075037631
 30
0.0
  0
SEQEND
  5
44E51
  8
PRINT_1
  6
CONTINUOUS
 62
   250
  0
POLYLINE
  5
44C14
  8
PRINT_1
  6
CONTINUOUS
 62
   250
 66
     1
 10
0.0
 20
0.0
 30
0.0
 70
     1
  0
VERTEX
  5
44E52
  8
PRINT_1
  6
CONTINUOUS
 62
   250
 10
6.8672196620306201
 20
12.505002075037631
 30
0.0
  0
VERTEX
  5
44E53
  8
PRINT_1
  6
CONTINUOUS
 62
   250
 10
7.3672196620306352
 20
12.505002075037631
 30
0.0
  0
VERTEX
  5
44E54
  8
PRINT_1
  6
CONTINUOUS
 62
   250
 10
7.3672196620306352
 20
12.005002075037631
 30
0.0
  0
VERTEX
  5
44E55
  8
PRINT_1
  6
CONTINUOUS
 62
   250
 10
6.8672196620306201
 20
12.005002075037631
 30
0.0
  0
SEQEND
  5
44E56
  8
PRINT_1
  6
CONTINUOUS
 62
   250
  0
VIEWPORT
  5
36874
 67
     1
  8
0
  6
CONTINUOUS
 62
     3
 10
1.375000091988269
 20
0.8749999868588185
 30
0.0
 40
4.991799152829925
 41
2.1159999682208679
 68
     1
 69
     1
1001
ACAD
1000
MVIEW
1002
{
1070
    16
1010
0.0
1020
0.0
1030
0.0
1010
0.0
1020
0.0
1030
1.0
1040
0.0
1040
2.1159999682208679
1040
1.375000091988269
1040
0.8749999868588185
1040
50.0
1040
0.0
1040
0.0
1070
     0
1070
   100
1070
     1
1070
     1
1070
     0
1070
     0
1070
     0
1070
     0
1040
0.0
1040
0.0
1040
0.0
1040
0.5
1040
0.5
1040
0.5
1040
0.5
1070
     0
1002
{
1002
}
1002
}
  0
VIEWPORT
  5
36878
 67
     1
  8
CUT
  6
CONTINUOUS
 62
     3
 10
1.3750000309756421
 20
0.8750000009386557
 30
0.0
 40
2.200000049561027
 41
1.4000000015018479
 68
     2
 69
     2
1001
ACAD
1000
MVIEW
1002
{
1070
    16
1010
0.0
1020
0.0
1030
0.0
1010
0.0
1020
0.0
1030
1.0
1040
0.0
1040
124.9732427226481
1040
80.781366360566139
1040
-18.741403373705349
1040
50.0
1040
0.0
1040
0.0
1070
     0
1070
   100
1070
     1
1070
     1
1070
     0
1070
     0
1070
     0
1070
     0
1040
0.0
1040
0.0
1040
0.0
1040
0.5
1040
0.5
1040
0.5
1040
0.5
1070
     0
1002
{
1002
}
1002
}
  0
ENDSEC
  0
EOF
